<svg xmlns="http://www.w3.org/2000/svg" viewBox="0 0 1080 1080"><defs><style>.cls-1{fill:#dadeef;}.cls-2{fill:#186afa;}</style></defs><title>zzzzzzzMesa de trabajo 1</title><g id="Figuritas"><path class="cls-1" d="M674.5,889.69s-10.84,16.82,3.16,22.16,20-6,28.67-14.67,23.33-20.67,23.33-20.67"/><path class="cls-2" d="M682.45,278.62s9.71-23.35,13.36-41.78,3.64-17.2,4.86-25.81,12.14-22.12-13.36-38.1-78.93-33.18-127.5-16c0,0-29.14,13.52-29.14,45.47s4.86,39.32,3.64,49.16-1.21,32-1.21,32l32.78,23.35"/><path class="cls-1" d="M347.6,311.42c-1.66-1-6.08-2.68-11.27,3-6.67,7.28-9.37,10.71-10.95,24.29,1.1,12.24,1,20.66-1.85,18.73l-.7-.48c-8.09-5.74-10.52-11.2-15.24-16.67-4.86-5.62-10.93-31.42-13.2-40.53s-6.22-20.95-8-26-7.44-7.59-13.36-6.22-3.19,16.54-3.19,20.34,5.92,21.1,7.59,29.29-.46,10.17-2,10.62S265.25,306.74,261,295a160,160,0,0,0-10.62-22.62v0c-2.1-2.95-4.75-5.58-8.08-5.94a8.12,8.12,0,0,0-5.37,1.44c-1.35,1.29-2.61,4.12-1.13,10.3.1.4.17.77.24,1.11,1.74,4.71,3.81,10.52,4.37,13,.72,3.19,10.92,32.69,12.13,44-4.09-7.07-11.82-24.95-14.82-34.6-3.78-12.16-7.33-20.36-12.37-20.82-2.18-.2-4.26,1-6.38,3.69-1.11,1.89-2.55,5.87-1.2,12.74,1.84,6.25,4.62,15.32,6.75,20.56.94,2.31,2,5.6,3.18,9.08,2.6,7.85,5.48,16.55,8.78,21.36a3.08,3.08,0,0,1,0,3.52,3.62,3.62,0,0,1-5.44.56c-5-4.75-13-15-19.05-21.79-6.9-7.68-13.18-8.32-16.79-6.45-1.44.74-2.92,5-1.89,9.57,1.56,6.95,9.53,19.54,16.31,27.89,2.72,3.35,4.07,4.86,6.18,7.78a131.76,131.76,0,0,0,9.6,12c4.75,5,4.92,8.61,7.25,15,.14.39,14.25,38.59,24.84,41.8,5.39,1.63,19.43,2.08,31.56.35,7.72-1.1,14.67-3.08,18.13-6.21s6.69-2.77,10.06-2.34c3.78.48,8.07,1,11.44-4.6,16.22-27,23.74-43.33,23-49.83-1-8.75-3.07-36,.46-46.18C354.51,322.37,352.49,314.33,347.6,311.42Z"/><path class="cls-1" d="M555.36,273.29s-4-25.09-19.43-20.24-12.14,31.57-6.48,38.86,8.9,11.33,9.71,14.57,4,7.29,4,7.29,0,39.67-3.24,47.76-5.67,17.81-13,19.43-123,7.29-153.81,21.86-65.57,65.57-76.9,116.57-16.19,75.28-9.71,83.38,12.14,9.71,12.14,9.71,81.35,14.57,91.07,1.62c0,0-12.14,157.45-19.43,248.92s340,20.64,340,20.64,66-318.94,49.78-390.18-55.86-84.19-92.28-93.9c0,0-25.09-2.43-15.38-18.62,0,0,25.9-15.38,31.57-70.43s-2.43-27.52-4-49.38-.81-44.52-.81-44.52-23.48,18.62-60.71,6.48-42.09-18.62-42.09-18.62S587.74,257.91,555.36,273.29Z"/><path class="cls-1" d="M795.38,489c-25.89-50.16-95-77.85-95-77.85L408,900.66S570.74,912.8,608.38,912.8s129.92-25.5,129.92-25.5C790.52,852.09,868.23,784.09,879.16,727S814.81,526.67,795.38,489Zm-61,296.15,13.86-110.8s18.78,39.46,35.45,48.8l.4,6.62S735,783.18,734.33,785.18Zm1.33,94-6-2.67"/><path class="cls-2" d="M704.28,273.32l-23.65-8-.17,0a89.06,89.06,0,0,0-37.34,1.8c-12.29-1.46-15.31-3.1-15.32-3.1l-4.53-1.27c-16.85-4.55-27-7.3-42.49-6.52-16.27.82-21.56.93-21.61.93l-1.25,0,.54,10.3,1.23-.08c1.4-.09,3.94.09,4.84,1a1,1,0,0,1,.29.85c-.17,2.31.31,9.75.75,15.59a26.48,26.48,0,0,0,5,13.83c4.58,6.19,9.49,6.83,19.27,8.1,1.44.19,3,.39,4.66.62,15,2.12,20-4.43,22.11-7.22a8.47,8.47,0,0,1,.67-.82c1-.89,3-4.19,6.2-9.51,2.12-3.49,4.31-7.1,5.64-9,2.2-3.06,4.51-2.69,8-.93,1.34.68,2.64,7,3.41,10.73a55.72,55.72,0,0,0,2,7.86l.33.85c1.93,5,4.84,12.63,16.22,15.32A79,79,0,0,0,677,317.12c5.56,0,10.13-1,13.79-2.88,7.38-3.87,11.08-22,11.9-26.5l7.7-.15,2-9.86Zm-22,37.33c-14.89,3.59-27-4.1-30-7.07-2.43-2.37-4.55-13.09-5.81-19.49-.38-1.95-.72-3.63-1-4.76-.86-3.57,5.56-5.57,6.32-5.79,30.68-3.58,41.49,2.83,43.39,4.19l.92,8.86C696.09,286.79,696.31,307.26,682.27,310.64Zm-69.59-13.32c-3.51,2.42-16.71,7.95-30.78,1.88-13.24-5.71-9.57-25.86-9.56-26l2.44-8.68c2.09-1,13.64-5.56,43.47,3.23.71.35,6.7,3.41,5.25,6.78h0c-.46,1.07-1.07,2.67-1.78,4.52C619.38,285.19,615.48,295.39,612.68,297.32Z"/><path class="cls-1" d="M255,430.74s-9.71,46.14-20.64,91.07-18.21,139.64,7.29,170,71.64,12.14,93.5-20.64S406.82,585,411.67,574s-55.86-44.93-55.86-44.93l-23.07-10.93-4.86-93.5"/><path class="cls-2" d="M618.67,253.32c-3.48-2.56-15.72-10.92-27.33-11.08-6.4-.09-9.57.7-10.29,2.57-.52,1.32.48,2.6,1.16,3.14a1.44,1.44,0,0,0,1.17.29c.15,0,15.24-2.73,32.24,8.43a2.62,2.62,0,0,0,1.43.43,2.24,2.24,0,0,0,1.59-.62l.38-.38a1.68,1.68,0,0,0,.5-1.34A2,2,0,0,0,618.67,253.32Z"/><path class="cls-2" d="M650.53,252.71c3.61-1.71,14.25-6.1,22-2.61a3.32,3.32,0,0,1,1.25.95c.88,1.11,1.29,3.18-7,3.93-11.49,1-16.81.78-18.36,2.62-1.08,1.28-.26-1.29.34-3A3.37,3.37,0,0,1,650.53,252.71Z"/><path class="cls-2" d="M630.85,272.89l4.32,32.4c.38,2.83,1.05,4.9,1.17,6.46.54,7.12-9.42,8.46-14.6,9.1-3.83.47-3.88,6.55,0,6.07,7.16-.88,17.21-2.57,20.07-10.42a11.14,11.14,0,0,0,.42-6.16c-.12-.56-.31-1.08-.48-1.62-.85-2.75.19,1.74,0,.16-1.73-12-3.2-24-4.8-36-.51-3.82-6.59-3.87-6.07,0Z"/><path class="cls-2" d="M594,338.79a77.47,77.47,0,0,0,22.87,7.15,75.06,75.06,0,0,0,11.81.77c2,0,10.69-2,12.33-.88l-1.5-2.62c.14,3.2-5.94,7.9-8.49,9.64a24.28,24.28,0,0,1-13.52,4.43c-9.87,0-19-7.6-20-17.57-.37-3.85-6.45-3.89-6.07,0,2.21,22.82,29,29.73,45.41,16.29,3.66-3,15.26-16.88,3.2-16.46-7.06.25-13.57,1.49-20.71.65a70.09,70.09,0,0,1-22.27-6.64c-3.5-1.69-6.59,3.54-3.06,5.24Z"/><path class="cls-2" d="M545.65,318.62c5.51,9.71,10.91,19.36,17.15,28.33s13.31,17.23,21.71,23.83a75.07,75.07,0,0,0,28.47,14c2.6.69,5.26,1.13,7.94,1.58l4,.54,4.08.32a159.31,159.31,0,0,0,16.57.07A77.25,77.25,0,0,1,612,389.46a67.74,67.74,0,0,1-31.28-13.91,90.72,90.72,0,0,1-21.93-26.05A142.15,142.15,0,0,1,545.65,318.62Z"/><path class="cls-2" d="M561,359.91a122.62,122.62,0,0,1,8.8,14.43q3.92,7.42,7.21,15.11t6,15.62a120.78,120.78,0,0,1,4.41,16.3,121.09,121.09,0,0,1-8.81-14.43q-3.92-7.42-7.21-15.11t-6-15.62A122.3,122.3,0,0,1,561,359.91Z"/><circle class="cls-2" cx="596.65" cy="276.53" r="7.69"/><circle class="cls-2" cx="658.17" cy="283.82" r="7.69"/><path class="cls-2" d="M373.36,623.06a248.76,248.76,0,0,0,52.85-92.48c1.17-3.74-4.69-5.34-5.85-1.61a241.63,241.63,0,0,1-51.29,89.8c-2.61,2.89,1.67,7.2,4.29,4.29Z"/><path class="cls-2" d="M374.14,620.11c-4.22-11.46-8.14-23.56-15.13-33.7-6.86-10-16.5-16.84-27.16-22.29-3.47-1.78-6.55,3.46-3.06,5.24,10.1,5.17,19.39,11.59,25.71,21.2s9.89,20.56,13.79,31.17c1.34,3.64,7.21,2.06,5.85-1.61Z"/><path class="cls-2" d="M324.86,438a1101.42,1101.42,0,0,1-2.54,170.13c-.36,3.89,5.71,3.86,6.07,0A1101.42,1101.42,0,0,0,330.93,438c-.24-3.88-6.32-3.91-6.07,0Z"/><path class="cls-2" d="M387.39,613.48l-8.15-.27v6.07A112.21,112.21,0,0,0,429,602.18c3.28-2.1.24-7.35-3.06-5.24a105.6,105.6,0,0,1-46.72,16.28c-3.83.38-4,5.94,0,6.07l8.15.27c3.91.13,3.9-5.94,0-6.07Z"/><path class="cls-2" d="M871.34,751.61c-34,47.34-76.33,89.68-124.3,122.95a2.42,2.42,0,0,0-2,1.13l-.32.46a24.79,24.79,0,0,1-7.61,7c-7.54,4.57-17.18,6.16-25.15,9.59a39.72,39.72,0,0,0-13.43,9.38c-4.61,4.84-9.24,8.59-15.55,8.44a3,3,0,0,0-1.92-.78c-8.95-.43-8.44-9.63-3.57-14.54,3.77-3.8,8.79-6.64,13.2-9.62q14.57-9.82,29.76-18.65c3.37-2,.32-7.22-3.06-5.24q-12.72,7.43-25,15.51c-.89.59-1.81,1.18-2.73,1.76a2,2,0,0,0-1.38.07c-5.26,1.9-14.77,6.59-20.54,3.26-5.93-3.42.91-8.2,3.87-10.4,2.34-1.74,4.63-3.57,6.86-5.46,3.61-3.07,7.58-5.81,11.46-8.56,2.8-2,5.09-3.59,8.56-2.3,2.57,1,3.93,2,6.78,2.34,3.88.41,3.85-5.66,0-6.07s-6.34-4-10.58-3.27c-3.58.61-7,3.36-9.77,5.5-6.21,4.72-12.5,9.34-18.68,14.12-3,.44-5.56,1.64-8.5,2.35-7.95,1.92-7.76-5.23-5.11-10.07a46.59,46.59,0,0,1,8.53-10.81,11,11,0,0,0,1-.56,2.41,2.41,0,0,0,1-1.34c1.15-1,2.31-2.06,3.48-3,5.07-4.25,10.66-9.36,16.74-12.11,8.06-3.64,17.11-1.11,25.18,1.12,3.11.86,4.43-4,1.33-4.82-9.43-2.6-19.74-5.06-29-.62-8.07,3.87-16.12,10.81-22.59,17.2-4.77,1.76-8.28-4-8.05-8.62a12.78,12.78,0,0,1,2.75-7.27h.25c5.26-6.22,18.7-15.85,21.35-17.73a82.32,82.32,0,0,1,7.2-5.32c6.18-4,13.47-2,20.11-.12,3.08.88,6.14,1.85,9.2,2.81,1.68.53,6.16,1,7.47,2.48.16,2.62,4.05,4.28,5.62,1.42a317.66,317.66,0,0,1,69.94-87.32c3-2.57-1.36-6.85-4.29-4.29A319.63,319.63,0,0,0,728.27,794c-.55-.66-1.11-1.28-1.6-1.8-1.92-2-3.67-4.21-5.52-6.31s-3.57-5.38-6-6.95c-3.39-2.18-9.45-.84-11.84,2.39-1.72,2.33-1.94,5.85-2.25,8.63s.47,6.86-.45,9.7c-5.25-1.42-10.75-2.37-15.93-1.16s-11.39,5.45-15,9.23a169.55,169.55,0,0,1-16.26,14.61,19.5,19.5,0,0,0-2,1.59l-.58.46a2.71,2.71,0,0,0-.67.77,17.7,17.7,0,0,0-4.47,16.12,12.41,12.41,0,0,0,7.91,8.94c-4.57,5.12-9.09,11.75-7.71,18.27a9.09,9.09,0,0,0,6.3,7.14c2.66.73,5.16.15,7.63-.66-1.58,3.88-.54,8.27,3.58,11.57a15.09,15.09,0,0,0,11.06,3.11c-.65.59-1.28,1.19-1.88,1.82-8.58,8.94-4.92,23.64,8.46,24.29a2.87,2.87,0,0,0,1.45-.29,20.54,20.54,0,0,0,13.6-4.15c2.63-2,4.71-4.54,7-6.87a33.52,33.52,0,0,1,10.78-7.21c10.6-4.58,22.73-6.25,31.19-14.06,50.94-34.36,95.62-78.68,131.48-128.54C878.87,751.49,873.6,748.46,871.34,751.61ZM711.31,784c2.14.51,5.65,6.25,7.14,8,0,0,6.8,5.76,6.55,7a5.13,5.13,0,0,1-.85,1.58c0,.05,0,.1.06.15q-1.58,2.68-3.12,5.4c-3.89-2.49-9.76-3.22-13.67-4.41l-1.34-.41C707,795.27,706.13,782.81,711.31,784Z"/><path class="cls-2" d="M733.8,627.68A220.32,220.32,0,0,1,837.94,587.4c3.84-.43,3.88-6.51,0-6.07a226.33,226.33,0,0,0-107.21,41.11c-3.14,2.26-.11,7.53,3.06,5.24Z"/><path class="cls-2" d="M267.36,435.37A17.65,17.65,0,0,1,250.89,430c-2.7-2.84-7,1.46-4.29,4.29A23.93,23.93,0,0,0,269,441.22c3.83-.77,2.21-6.62-1.61-5.85Z"/><path class="cls-2" d="M727.83,627.11A240.85,240.85,0,0,0,784.05,729.8c2.66,2.88,6.94-1.43,4.29-4.29a234.37,234.37,0,0,1-54.66-100c-1-3.78-6.84-2.18-5.85,1.61Z"/><path class="cls-2" d="M732.12,623a233.66,233.66,0,0,1-19.65-76.89c-.31-3.87-6.38-3.9-6.07,0a242.37,242.37,0,0,0,20.48,80c1.59,3.56,6.83.48,5.24-3.06Z"/><path class="cls-2" d="M743.78,672.77a969.8,969.8,0,0,0-11,113.75c-.14,3.91,5.93,3.9,6.07,0a956,956,0,0,1,10.74-112.13c.6-3.82-5.25-5.47-5.85-1.61Z"/><path class="cls-2" d="M386.34,618q4.47,75.84,5,151.83c0,3.91,6.1,3.91,6.07,0q-.55-76-5-151.83c-.23-3.88-6.3-3.91-6.07,0Z"/><path class="cls-2" d="M667.19,402.15c-8.63,26.2-32.61,45-59.54,49.37-30.39,5-61.18-7.52-83-28.4a141.24,141.24,0,0,1-28.22-38.94c-1.44-2.88-5.76-.35-4.32,2.52,13.84,27.55,35.82,51.66,64.79,63.41s62.75,9.87,88-9.21A77.26,77.26,0,0,0,672,403.47c1-3.06-3.82-4.38-4.82-1.33Z"/></g></svg>